<svg xmlns="http://www.w3.org/2000/svg" xmlns:xlink="http://www.w3.org/1999/xlink" contentStyleType="text/css" data-diagram-type="CLASS" height="828px" preserveAspectRatio="none" style="width:1571px;height:828px;background:#FFFFFF;" version="1.1" viewBox="0 0 1571 828" width="1571px" zoomAndPan="magnify"><defs/><g><!--class IMusical--><g id="elem_IMusical"><rect codeLine="4" fill="#F1F1F1" height="64.2969" id="IMusical" rx="2.5" ry="2.5" style="stroke:#181818;stroke-width:0.5;" width="145.1914" x="1419.42" y="716.09"/><ellipse cx="1459.9623" cy="732.09" fill="#B4A7E5" rx="11" ry="11" style="stroke:#181818;stroke-width:1;"/><path d="M1455.8842,727.8556 L1455.8842,725.6994 L1463.2748,725.6994 L1463.2748,727.8556 L1460.8061,727.8556 L1460.8061,735.9338 L1463.2748,735.9338 L1463.2748,738.09 L1455.8842,738.09 L1455.8842,735.9338 L1458.353,735.9338 L1458.353,727.8556 L1455.8842,727.8556 Z " fill="#000000"/><text fill="#000000" font-family="sans-serif" font-size="14" font-style="italic" lengthAdjust="spacing" textLength="56.4307" x="1479.6384" y="736.9367">IMusical</text><line style="stroke:#181818;stroke-width:0.5;" x1="1420.42" x2="1563.6114" y1="748.09" y2="748.09"/><line style="stroke:#181818;stroke-width:0.5;" x1="1420.42" x2="1563.6114" y1="756.09" y2="756.09"/><ellipse cx="1430.42" cy="769.7384" fill="#84BE84" rx="3" ry="3" style="stroke:#038048;stroke-width:1;"/><text fill="#000000" font-family="sans-serif" font-size="14" lengthAdjust="spacing" textLength="119.1914" x="1439.42" y="773.0851">playMusic(): void</text></g><!--class ITransformable--><g id="elem_ITransformable"><rect codeLine="8" fill="#F1F1F1" height="64.2969" id="ITransformable" rx="2.5" ry="2.5" style="stroke:#181818;stroke-width:0.5;" width="144.5967" x="1051.71" y="716.09"/><ellipse cx="1069.6609" cy="732.09" fill="#B4A7E5" rx="11" ry="11" style="stroke:#181818;stroke-width:1;"/><path d="M1065.5828,727.8556 L1065.5828,725.6994 L1072.9734,725.6994 L1072.9734,727.8556 L1070.5047,727.8556 L1070.5047,735.9338 L1072.9734,735.9338 L1072.9734,738.09 L1065.5828,738.09 L1065.5828,735.9338 L1068.0516,735.9338 L1068.0516,727.8556 L1065.5828,727.8556 Z " fill="#000000"/><text fill="#000000" font-family="sans-serif" font-size="14" font-style="italic" lengthAdjust="spacing" textLength="106.0391" x="1084.3167" y="736.9367">ITransformable</text><line style="stroke:#181818;stroke-width:0.5;" x1="1052.71" x2="1195.3067" y1="748.09" y2="748.09"/><line style="stroke:#181818;stroke-width:0.5;" x1="1052.71" x2="1195.3067" y1="756.09" y2="756.09"/><ellipse cx="1062.71" cy="769.7384" fill="#84BE84" rx="3" ry="3" style="stroke:#038048;stroke-width:1;"/><text fill="#000000" font-family="sans-serif" font-size="14" lengthAdjust="spacing" textLength="118.5967" x="1071.71" y="773.0851">transform(): void</text></g><!--class IRescuable--><g id="elem_IRescuable"><rect codeLine="12" fill="#F1F1F1" height="64.2969" id="IRescuable" rx="2.5" ry="2.5" style="stroke:#181818;stroke-width:0.5;" width="152.9229" x="1231.55" y="716.09"/><ellipse cx="1266.6291" cy="732.09" fill="#B4A7E5" rx="11" ry="11" style="stroke:#181818;stroke-width:1;"/><path d="M1262.5509,727.8556 L1262.5509,725.6994 L1269.9416,725.6994 L1269.9416,727.8556 L1267.4728,727.8556 L1267.4728,735.9338 L1269.9416,735.9338 L1269.9416,738.09 L1262.5509,738.09 L1262.5509,735.9338 L1265.0197,735.9338 L1265.0197,727.8556 L1262.5509,727.8556 Z " fill="#000000"/><text fill="#000000" font-family="sans-serif" font-size="14" font-style="italic" lengthAdjust="spacing" textLength="76.3027" x="1285.0911" y="736.9367">IRescuable</text><line style="stroke:#181818;stroke-width:0.5;" x1="1232.55" x2="1383.4729" y1="748.09" y2="748.09"/><line style="stroke:#181818;stroke-width:0.5;" x1="1232.55" x2="1383.4729" y1="756.09" y2="756.09"/><ellipse cx="1242.55" cy="769.7384" fill="#84BE84" rx="3" ry="3" style="stroke:#038048;stroke-width:1;"/><text fill="#000000" font-family="sans-serif" font-size="14" lengthAdjust="spacing" textLength="126.9229" x="1251.55" y="773.0851">beRescued(): void</text></g><!--class Person--><g id="elem_Person"><rect codeLine="19" fill="#F1F1F1" height="113.1875" id="Person" rx="2.5" ry="2.5" style="stroke:#181818;stroke-width:0.5;" width="175.1191" x="804.45" y="691.65"/><ellipse cx="863.9876" cy="707.65" fill="#A9DCDF" rx="11" ry="11" style="stroke:#181818;stroke-width:1;"/><path d="M864.097,702.9938 L862.9407,708.0719 L865.2688,708.0719 L864.097,702.9938 Z M862.6126,700.7594 L865.597,700.7594 L868.9563,713.15 L866.5032,713.15 L865.7376,710.0875 L862.4563,710.0875 L861.7063,713.15 L859.2688,713.15 L862.6126,700.7594 Z " fill="#000000"/><text fill="#000000" font-family="sans-serif" font-size="14" font-style="italic" lengthAdjust="spacing" textLength="47.5439" x="884.4876" y="712.4967">Person</text><line style="stroke:#181818;stroke-width:0.5;" x1="805.45" x2="978.5691" y1="723.65" y2="723.65"/><rect fill="#FFFFFF" fill-opacity="0.00000" height="6" style="stroke:#C82930;stroke-width:1;" width="6" x="812.45" y="734.2984"/><text fill="#000000" font-family="sans-serif" font-size="14" lengthAdjust="spacing" textLength="90.6514" x="824.45" y="740.6451">name: String</text><line style="stroke:#181818;stroke-width:0.5;" x1="805.45" x2="978.5691" y1="747.9469" y2="747.9469"/><ellipse cx="815.45" cy="761.5953" fill="#84BE84" rx="3" ry="3" style="stroke:#038048;stroke-width:1;"/><text fill="#000000" font-family="sans-serif" font-size="14" lengthAdjust="spacing" textLength="149.1191" x="824.45" y="764.942">Person(name: String)</text><ellipse cx="815.45" cy="777.8922" fill="#84BE84" rx="3" ry="3" style="stroke:#038048;stroke-width:1;"/><text fill="#000000" font-family="sans-serif" font-size="14" lengthAdjust="spacing" textLength="58.4678" x="824.45" y="781.2389">Person()</text><ellipse cx="815.45" cy="794.1891" fill="#84BE84" rx="3" ry="3" style="stroke:#038048;stroke-width:1;"/><text fill="#000000" font-family="sans-serif" font-size="14" lengthAdjust="spacing" textLength="126.1641" x="824.45" y="797.5357">getName(): String</text></g><!--class BandMember--><g id="elem_BandMember"><rect codeLine="26" fill="#F1F1F1" height="145.7813" id="BandMember" rx="2.5" ry="2.5" style="stroke:#181818;stroke-width:0.5;" width="420.9531" x="1097.54" y="444.42"/><ellipse cx="1257.0019" cy="460.42" fill="#ADD1B2" rx="11" ry="11" style="stroke:#181818;stroke-width:1;"/><path d="M1259.9707,466.0606 Q1259.3925,466.3575 1258.7519,466.4981 Q1258.1113,466.6544 1257.4082,466.6544 Q1254.9082,466.6544 1253.58,465.0138 Q1252.2675,463.3575 1252.2675,460.2325 Q1252.2675,457.1075 1253.58,455.4513 Q1254.9082,453.795 1257.4082,453.795 Q1258.1113,453.795 1258.7519,453.9513 Q1259.4082,454.1075 1259.9707,454.4044 L1259.9707,457.1231 Q1259.3457,456.545 1258.7519,456.2794 Q1258.1582,455.9981 1257.5332,455.9981 Q1256.1894,455.9981 1255.5019,457.0763 Q1254.8144,458.1388 1254.8144,460.2325 Q1254.8144,462.3263 1255.5019,463.4044 Q1256.1894,464.4669 1257.5332,464.4669 Q1258.1582,464.4669 1258.7519,464.2013 Q1259.3457,463.92 1259.9707,463.3419 L1259.9707,466.0606 Z " fill="#000000"/><text fill="#000000" font-family="sans-serif" font-size="14" lengthAdjust="spacing" textLength="93.5293" x="1277.5019" y="465.2667">BandMember</text><line style="stroke:#181818;stroke-width:0.5;" x1="1098.54" x2="1517.4931" y1="476.42" y2="476.42"/><rect fill="#FFFFFF" fill-opacity="0.00000" height="6" style="stroke:#C82930;stroke-width:1;" width="6" x="1105.54" y="487.0684"/><text fill="#000000" font-family="sans-serif" font-size="14" lengthAdjust="spacing" textLength="77.7725" x="1117.54" y="493.4151">role: String</text><line style="stroke:#181818;stroke-width:0.5;" x1="1098.54" x2="1517.4931" y1="500.7169" y2="500.7169"/><ellipse cx="1108.54" cy="514.3653" fill="#84BE84" rx="3" ry="3" style="stroke:#038048;stroke-width:1;"/><text fill="#000000" font-family="sans-serif" font-size="14" lengthAdjust="spacing" textLength="281.7773" x="1117.54" y="517.712">BandMember(name: String, role: String)</text><ellipse cx="1108.54" cy="530.6622" fill="#84BE84" rx="3" ry="3" style="stroke:#038048;stroke-width:1;"/><text fill="#000000" font-family="sans-serif" font-size="14" lengthAdjust="spacing" textLength="394.9531" x="1117.54" y="534.0089">BandMember(name: String)  ' Constructor sobrecargado</text><ellipse cx="1108.54" cy="546.9591" fill="#84BE84" rx="3" ry="3" style="stroke:#038048;stroke-width:1;"/><text fill="#000000" font-family="sans-serif" font-size="14" lengthAdjust="spacing" textLength="119.1914" x="1117.54" y="550.3057">playMusic(): void</text><ellipse cx="1108.54" cy="563.2559" fill="#84BE84" rx="3" ry="3" style="stroke:#038048;stroke-width:1;"/><text fill="#000000" font-family="sans-serif" font-size="14" lengthAdjust="spacing" textLength="118.5967" x="1117.54" y="566.6026">transform(): void</text><ellipse cx="1108.54" cy="579.5528" fill="#84BE84" rx="3" ry="3" style="stroke:#038048;stroke-width:1;"/><text fill="#000000" font-family="sans-serif" font-size="14" lengthAdjust="spacing" textLength="126.9229" x="1117.54" y="582.8995">beRescued(): void</text></g><!--class Astronaut--><g id="elem_Astronaut"><rect codeLine="39" fill="#F1F1F1" height="162.0781" id="Astronaut" rx="2.5" ry="2.5" style="stroke:#181818;stroke-width:0.5;" width="341.9912" x="721.02" y="436.27"/><ellipse cx="853.5176" cy="452.27" fill="#ADD1B2" rx="11" ry="11" style="stroke:#181818;stroke-width:1;"/><path d="M856.4863,457.9106 Q855.9082,458.2075 855.2676,458.3481 Q854.6269,458.5044 853.9238,458.5044 Q851.4238,458.5044 850.0957,456.8638 Q848.7832,455.2075 848.7832,452.0825 Q848.7832,448.9575 850.0957,447.3013 Q851.4238,445.645 853.9238,445.645 Q854.6269,445.645 855.2676,445.8013 Q855.9238,445.9575 856.4863,446.2544 L856.4863,448.9731 Q855.8613,448.395 855.2676,448.1294 Q854.6738,447.8481 854.0488,447.8481 Q852.7051,447.8481 852.0176,448.9263 Q851.3301,449.9888 851.3301,452.0825 Q851.3301,454.1763 852.0176,455.2544 Q852.7051,456.3169 854.0488,456.3169 Q854.6738,456.3169 855.2676,456.0513 Q855.8613,455.77 856.4863,455.1919 L856.4863,457.9106 Z " fill="#000000"/><text fill="#000000" font-family="sans-serif" font-size="14" lengthAdjust="spacing" textLength="68.4961" x="874.0176" y="457.1167">Astronaut</text><line style="stroke:#181818;stroke-width:0.5;" x1="722.02" x2="1062.0112" y1="468.27" y2="468.27"/><line style="stroke:#181818;stroke-width:0.5;" x1="722.02" x2="1062.0112" y1="476.27" y2="476.27"/><ellipse cx="732.02" cy="489.9184" fill="#84BE84" rx="3" ry="3" style="stroke:#038048;stroke-width:1;"/><text fill="#000000" font-family="sans-serif" font-size="14" lengthAdjust="spacing" textLength="170.0713" x="741.02" y="493.2651">Astronaut(name: String)</text><ellipse cx="732.02" cy="506.2153" fill="#84BE84" rx="3" ry="3" style="stroke:#038048;stroke-width:1;"/><text fill="#000000" font-family="sans-serif" font-size="14" lengthAdjust="spacing" textLength="79.4199" x="741.02" y="509.562">Astronaut()</text><ellipse cx="732.02" cy="522.5122" fill="#84BE84" rx="3" ry="3" style="stroke:#038048;stroke-width:1;"/><text fill="#000000" font-family="sans-serif" font-size="14" lengthAdjust="spacing" textLength="121.29" x="741.02" y="525.8589">trackBand(): void</text><ellipse cx="732.02" cy="538.8091" fill="#84BE84" rx="3" ry="3" style="stroke:#038048;stroke-width:1;"/><text fill="#000000" font-family="sans-serif" font-size="14" lengthAdjust="spacing" textLength="315.9912" x="741.02" y="542.1557">rescueMember(member: BandMember): void</text><ellipse cx="732.02" cy="555.1059" fill="#84BE84" rx="3" ry="3" style="stroke:#038048;stroke-width:1;"/><text fill="#000000" font-family="sans-serif" font-size="14" lengthAdjust="spacing" textLength="146.6582" x="741.02" y="558.4526">infiltrateEarth(): void</text><ellipse cx="732.02" cy="571.4028" fill="#84BE84" rx="3" ry="3" style="stroke:#038048;stroke-width:1;"/><text fill="#000000" font-family="sans-serif" font-size="14" lengthAdjust="spacing" textLength="146.248" x="741.02" y="574.7495">discoverTruth(): void</text><ellipse cx="732.02" cy="587.6997" fill="#84BE84" rx="3" ry="3" style="stroke:#038048;stroke-width:1;"/><text fill="#000000" font-family="sans-serif" font-size="14" lengthAdjust="spacing" textLength="156.7207" x="741.02" y="591.0464">attemptRescue(): void</text></g><!--class Producer--><g id="elem_Producer"><rect codeLine="50" fill="#F1F1F1" height="145.7813" id="Producer" rx="2.5" ry="2.5" style="stroke:#181818;stroke-width:0.5;" width="364.0234" x="7" y="444.42"/><ellipse cx="153.4668" cy="460.42" fill="#ADD1B2" rx="11" ry="11" style="stroke:#181818;stroke-width:1;"/><path d="M156.4355,466.0606 Q155.8574,466.3575 155.2168,466.4981 Q154.5762,466.6544 153.873,466.6544 Q151.373,466.6544 150.0449,465.0138 Q148.7324,463.3575 148.7324,460.2325 Q148.7324,457.1075 150.0449,455.4513 Q151.373,453.795 153.873,453.795 Q154.5762,453.795 155.2168,453.9513 Q155.873,454.1075 156.4355,454.4044 L156.4355,457.1231 Q155.8105,456.545 155.2168,456.2794 Q154.623,455.9981 153.998,455.9981 Q152.6543,455.9981 151.9668,457.0763 Q151.2793,458.1388 151.2793,460.2325 Q151.2793,462.3263 151.9668,463.4044 Q152.6543,464.4669 153.998,464.4669 Q154.623,464.4669 155.2168,464.2013 Q155.8105,463.92 156.4355,463.3419 L156.4355,466.0606 Z " fill="#000000"/><text fill="#000000" font-family="sans-serif" font-size="14" lengthAdjust="spacing" textLength="62.5898" x="173.9668" y="465.2667">Producer</text><line style="stroke:#181818;stroke-width:0.5;" x1="8" x2="370.0234" y1="476.42" y2="476.42"/><line style="stroke:#181818;stroke-width:0.5;" x1="8" x2="370.0234" y1="484.42" y2="484.42"/><ellipse cx="18" cy="498.0684" fill="#84BE84" rx="3" ry="3" style="stroke:#038048;stroke-width:1;"/><text fill="#000000" font-family="sans-serif" font-size="14" lengthAdjust="spacing" textLength="164.165" x="27" y="501.4151">Producer(name: String)</text><ellipse cx="18" cy="514.3653" fill="#84BE84" rx="3" ry="3" style="stroke:#038048;stroke-width:1;"/><text fill="#000000" font-family="sans-serif" font-size="14" lengthAdjust="spacing" textLength="73.5137" x="27" y="517.712">Producer()</text><ellipse cx="18" cy="530.6622" fill="#84BE84" rx="3" ry="3" style="stroke:#038048;stroke-width:1;"/><text fill="#000000" font-family="sans-serif" font-size="14" lengthAdjust="spacing" textLength="213.2197" x="27" y="534.0089">kidnapBand(band: Band): void</text><ellipse cx="18" cy="546.9591" fill="#84BE84" rx="3" ry="3" style="stroke:#038048;stroke-width:1;"/><text fill="#000000" font-family="sans-serif" font-size="14" lengthAdjust="spacing" textLength="338.0234" x="27" y="550.3057">transformMember(member: BandMember): void</text><ellipse cx="18" cy="563.2559" fill="#84BE84" rx="3" ry="3" style="stroke:#038048;stroke-width:1;"/><text fill="#000000" font-family="sans-serif" font-size="14" lengthAdjust="spacing" textLength="133.2803" x="27" y="566.6026">exploitBand(): void</text><ellipse cx="18" cy="579.5528" fill="#84BE84" rx="3" ry="3" style="stroke:#038048;stroke-width:1;"/><text fill="#000000" font-family="sans-serif" font-size="14" lengthAdjust="spacing" textLength="222.1816" x="27" y="582.8995">pursueGlobalDominance(): void</text></g><!--class Studio--><g id="elem_Studio"><rect codeLine="77" fill="#F1F1F1" height="145.7813" id="Studio" rx="2.5" ry="2.5" style="stroke:#181818;stroke-width:0.5;" width="291.6377" x="325.19" y="675.35"/><ellipse cx="444.4634" cy="691.35" fill="#A9DCDF" rx="11" ry="11" style="stroke:#181818;stroke-width:1;"/><path d="M444.5728,686.6938 L443.4166,691.7719 L445.7447,691.7719 L444.5728,686.6938 Z M443.0884,684.4594 L446.0728,684.4594 L449.4322,696.85 L446.9791,696.85 L446.2134,693.7875 L442.9322,693.7875 L442.1822,696.85 L439.7447,696.85 L443.0884,684.4594 Z " fill="#000000"/><text fill="#000000" font-family="sans-serif" font-size="14" font-style="italic" lengthAdjust="spacing" textLength="44.5908" x="464.9634" y="696.1967">Studio</text><line style="stroke:#181818;stroke-width:0.5;" x1="326.19" x2="615.8277" y1="707.35" y2="707.35"/><rect fill="#FFFFFF" fill-opacity="0.00000" height="6" style="stroke:#C82930;stroke-width:1;" width="6" x="333.19" y="717.9984"/><text fill="#000000" font-family="sans-serif" font-size="14" lengthAdjust="spacing" textLength="135.249" x="345.19" y="724.3451">studioName: String</text><line style="stroke:#181818;stroke-width:0.5;" x1="326.19" x2="615.8277" y1="731.6469" y2="731.6469"/><ellipse cx="336.19" cy="745.2953" fill="#84BE84" rx="3" ry="3" style="stroke:#038048;stroke-width:1;"/><text fill="#000000" font-family="sans-serif" font-size="14" lengthAdjust="spacing" textLength="146.166" x="345.19" y="748.642">Studio(name: String)</text><ellipse cx="336.19" cy="761.5922" fill="#84BE84" rx="3" ry="3" style="stroke:#038048;stroke-width:1;"/><text fill="#000000" font-family="sans-serif" font-size="14" lengthAdjust="spacing" textLength="55.5146" x="345.19" y="764.9389">Studio()</text><ellipse cx="336.19" cy="777.8891" fill="#84BE84" rx="3" ry="3" style="stroke:#038048;stroke-width:1;"/><text fill="#000000" font-family="sans-serif" font-size="14" lengthAdjust="spacing" textLength="220.1035" x="345.19" y="781.2357">processBand(band: Band): void</text><ellipse cx="336.19" cy="794.1859" fill="#84BE84" rx="3" ry="3" style="stroke:#038048;stroke-width:1;"/><text fill="#000000" font-family="sans-serif" font-size="14" lengthAdjust="spacing" textLength="237.3574" x="345.19" y="797.5326">eraseMemories(band: Band): void</text><ellipse cx="336.19" cy="810.4828" fill="#84BE84" rx="3" ry="3" style="stroke:#038048;stroke-width:1;"/><text fill="#000000" font-family="sans-serif" font-size="14" lengthAdjust="spacing" textLength="265.6377" x="345.19" y="813.8295">changeAppearance(band: Band): void</text></g><!--class Band--><g id="elem_Band"><rect codeLine="64" fill="#F1F1F1" height="162.0781" id="Band" rx="2.5" ry="2.5" style="stroke:#181818;stroke-width:0.5;" width="348.6152" x="473.7" y="197.19"/><ellipse cx="625.7859" cy="213.19" fill="#ADD1B2" rx="11" ry="11" style="stroke:#181818;stroke-width:1;"/><path d="M628.7547,218.8306 Q628.1766,219.1275 627.5359,219.2681 Q626.8953,219.4244 626.1922,219.4244 Q623.6922,219.4244 622.3641,217.7837 Q621.0516,216.1275 621.0516,213.0025 Q621.0516,209.8775 622.3641,208.2212 Q623.6922,206.565 626.1922,206.565 Q626.8953,206.565 627.5359,206.7212 Q628.1922,206.8775 628.7547,207.1744 L628.7547,209.8931 Q628.1297,209.315 627.5359,209.0494 Q626.9422,208.7681 626.3172,208.7681 Q624.9734,208.7681 624.2859,209.8462 Q623.5984,210.9087 623.5984,213.0025 Q623.5984,215.0962 624.2859,216.1744 Q624.9734,217.2369 626.3172,217.2369 Q626.9422,217.2369 627.5359,216.9712 Q628.1297,216.69 628.7547,216.1119 L628.7547,218.8306 Z " fill="#000000"/><text fill="#000000" font-family="sans-serif" font-size="14" lengthAdjust="spacing" textLength="35.9434" x="646.2859" y="218.0367">Band</text><line style="stroke:#181818;stroke-width:0.5;" x1="474.7" x2="821.3152" y1="229.19" y2="229.19"/><rect fill="#FFFFFF" fill-opacity="0.00000" height="6" style="stroke:#C82930;stroke-width:1;" width="6" x="481.7" y="239.8384"/><text fill="#000000" font-family="sans-serif" font-size="14" lengthAdjust="spacing" textLength="217.0684" x="493.7" y="246.1851">members: List&lt;BandMember&gt;</text><rect fill="#FFFFFF" fill-opacity="0.00000" height="6" style="stroke:#C82930;stroke-width:1;" width="6" x="481.7" y="256.1353"/><text fill="#000000" font-family="sans-serif" font-size="14" lengthAdjust="spacing" textLength="90.6514" x="493.7" y="262.482">name: String</text><line style="stroke:#181818;stroke-width:0.5;" x1="474.7" x2="821.3152" y1="269.7837" y2="269.7837"/><ellipse cx="484.7" cy="283.4322" fill="#84BE84" rx="3" ry="3" style="stroke:#038048;stroke-width:1;"/><text fill="#000000" font-family="sans-serif" font-size="14" lengthAdjust="spacing" textLength="137.5186" x="493.7" y="286.7789">Band(name: String)</text><ellipse cx="484.7" cy="299.7291" fill="#84BE84" rx="3" ry="3" style="stroke:#038048;stroke-width:1;"/><text fill="#000000" font-family="sans-serif" font-size="14" lengthAdjust="spacing" textLength="46.8672" x="493.7" y="303.0757">Band()</text><ellipse cx="484.7" cy="316.0259" fill="#84BE84" rx="3" ry="3" style="stroke:#038048;stroke-width:1;"/><text fill="#000000" font-family="sans-serif" font-size="14" lengthAdjust="spacing" textLength="295.4971" x="493.7" y="319.3726">addMember(member: BandMember): void</text><ellipse cx="484.7" cy="332.3228" fill="#84BE84" rx="3" ry="3" style="stroke:#038048;stroke-width:1;"/><text fill="#000000" font-family="sans-serif" font-size="14" lengthAdjust="spacing" textLength="322.6152" x="493.7" y="335.6695">removeMember(member: BandMember): void</text><ellipse cx="484.7" cy="348.6197" fill="#84BE84" rx="3" ry="3" style="stroke:#038048;stroke-width:1;"/><text fill="#000000" font-family="sans-serif" font-size="14" lengthAdjust="spacing" textLength="134.1279" x="493.7" y="351.9664">playConcert(): void</text></g><!--class TransformationStudio--><g id="elem_TransformationStudio"><rect codeLine="86" fill="#F1F1F1" height="96.8906" id="TransformationStudio" rx="2.5" ry="2.5" style="stroke:#181818;stroke-width:0.5;" width="279.5039" x="406.26" y="468.86"/><ellipse cx="465.7976" cy="484.86" fill="#ADD1B2" rx="11" ry="11" style="stroke:#181818;stroke-width:1;"/><path d="M468.7663,490.5006 Q468.1882,490.7975 467.5476,490.9381 Q466.907,491.0944 466.2038,491.0944 Q463.7038,491.0944 462.3757,489.4538 Q461.0632,487.7975 461.0632,484.6725 Q461.0632,481.5475 462.3757,479.8913 Q463.7038,478.235 466.2038,478.235 Q466.907,478.235 467.5476,478.3913 Q468.2038,478.5475 468.7663,478.8444 L468.7663,481.5631 Q468.1413,480.985 467.5476,480.7194 Q466.9538,480.4381 466.3288,480.4381 Q464.9851,480.4381 464.2976,481.5163 Q463.6101,482.5788 463.6101,484.6725 Q463.6101,486.7663 464.2976,487.8444 Q464.9851,488.9069 466.3288,488.9069 Q466.9538,488.9069 467.5476,488.6413 Q468.1413,488.36 468.7663,487.7819 L468.7663,490.5006 Z " fill="#000000"/><text fill="#000000" font-family="sans-serif" font-size="14" lengthAdjust="spacing" textLength="151.9287" x="486.2976" y="489.7067">TransformationStudio</text><line style="stroke:#181818;stroke-width:0.5;" x1="407.26" x2="684.7639" y1="500.86" y2="500.86"/><line style="stroke:#181818;stroke-width:0.5;" x1="407.26" x2="684.7639" y1="508.86" y2="508.86"/><ellipse cx="417.26" cy="522.5084" fill="#84BE84" rx="3" ry="3" style="stroke:#038048;stroke-width:1;"/><text fill="#000000" font-family="sans-serif" font-size="14" lengthAdjust="spacing" textLength="253.5039" x="426.26" y="525.8551">TransformationStudio(name: String)</text><ellipse cx="417.26" cy="538.8053" fill="#84BE84" rx="3" ry="3" style="stroke:#038048;stroke-width:1;"/><text fill="#000000" font-family="sans-serif" font-size="14" lengthAdjust="spacing" textLength="162.8525" x="426.26" y="542.152">TransformationStudio()</text><ellipse cx="417.26" cy="555.1022" fill="#84BE84" rx="3" ry="3" style="stroke:#038048;stroke-width:1;"/><text fill="#000000" font-family="sans-serif" font-size="14" lengthAdjust="spacing" textLength="220.1035" x="426.26" y="558.4489">processBand(band: Band): void</text></g><!--class RescueOperation--><g id="elem_RescueOperation"><rect codeLine="94" fill="#F1F1F1" height="96.8906" id="RescueOperation" rx="2.5" ry="2.5" style="stroke:#181818;stroke-width:0.5;" width="362.1436" x="642.94" y="15.15"/><ellipse cx="759.5167" cy="31.15" fill="#ADD1B2" rx="11" ry="11" style="stroke:#181818;stroke-width:1;"/><path d="M762.4854,36.7906 Q761.9073,37.0875 761.2667,37.2281 Q760.626,37.3844 759.9229,37.3844 Q757.4229,37.3844 756.0948,35.7437 Q754.7823,34.0875 754.7823,30.9625 Q754.7823,27.8375 756.0948,26.1812 Q757.4229,24.525 759.9229,24.525 Q760.626,24.525 761.2667,24.6812 Q761.9229,24.8375 762.4854,25.1344 L762.4854,27.8531 Q761.8604,27.275 761.2667,27.0094 Q760.6729,26.7281 760.0479,26.7281 Q758.7042,26.7281 758.0167,27.8062 Q757.3292,28.8687 757.3292,30.9625 Q757.3292,33.0562 758.0167,34.1344 Q758.7042,35.1969 760.0479,35.1969 Q760.6729,35.1969 761.2667,34.9312 Q761.8604,34.65 762.4854,34.0719 L762.4854,36.7906 Z " fill="#000000"/><text fill="#000000" font-family="sans-serif" font-size="14" lengthAdjust="spacing" textLength="120.4902" x="780.0167" y="35.9967">RescueOperation</text><line style="stroke:#181818;stroke-width:0.5;" x1="643.94" x2="1004.0836" y1="47.15" y2="47.15"/><line style="stroke:#181818;stroke-width:0.5;" x1="643.94" x2="1004.0836" y1="55.15" y2="55.15"/><ellipse cx="653.94" cy="68.7984" fill="#84BE84" rx="3" ry="3" style="stroke:#038048;stroke-width:1;"/><text fill="#000000" font-family="sans-serif" font-size="14" lengthAdjust="spacing" textLength="229.585" x="662.94" y="72.1451">initiateRescue(band: Band): void</text><ellipse cx="653.94" cy="85.0953" fill="#84BE84" rx="3" ry="3" style="stroke:#038048;stroke-width:1;"/><text fill="#000000" font-family="sans-serif" font-size="14" lengthAdjust="spacing" textLength="336.1436" x="662.94" y="88.442">breakMindControl(member: BandMember): void</text><ellipse cx="653.94" cy="101.3922" fill="#84BE84" rx="3" ry="3" style="stroke:#038048;stroke-width:1;"/><text fill="#000000" font-family="sans-serif" font-size="14" lengthAdjust="spacing" textLength="137.5186" x="662.94" y="104.7389">exposeTruth(): void</text></g><!--class SecretBase--><g id="elem_SecretBase"><rect codeLine="102" fill="#F1F1F1" height="96.8906" id="SecretBase" rx="2.5" ry="2.5" style="stroke:#181818;stroke-width:0.5;" width="243.3213" x="47.35" y="699.79"/><ellipse cx="125.1874" cy="715.79" fill="#ADD1B2" rx="11" ry="11" style="stroke:#181818;stroke-width:1;"/><path d="M128.1562,721.4306 Q127.578,721.7275 126.9374,721.8681 Q126.2968,722.0244 125.5937,722.0244 Q123.0937,722.0244 121.7655,720.3838 Q120.453,718.7275 120.453,715.6025 Q120.453,712.4775 121.7655,710.8213 Q123.0937,709.165 125.5937,709.165 Q126.2968,709.165 126.9374,709.3213 Q127.5937,709.4775 128.1562,709.7744 L128.1562,712.4931 Q127.5312,711.915 126.9374,711.6494 Q126.3437,711.3681 125.7187,711.3681 Q124.3749,711.3681 123.6874,712.4463 Q122.9999,713.5088 122.9999,715.6025 Q122.9999,717.6963 123.6874,718.7744 Q124.3749,719.8369 125.7187,719.8369 Q126.3437,719.8369 126.9374,719.5713 Q127.5312,719.29 128.1562,718.7119 L128.1562,721.4306 Z " fill="#000000"/><text fill="#000000" font-family="sans-serif" font-size="14" lengthAdjust="spacing" textLength="79.1465" x="145.6874" y="720.6367">SecretBase</text><line style="stroke:#181818;stroke-width:0.5;" x1="48.35" x2="289.6713" y1="731.79" y2="731.79"/><line style="stroke:#181818;stroke-width:0.5;" x1="48.35" x2="289.6713" y1="739.79" y2="739.79"/><ellipse cx="58.35" cy="753.4384" fill="#84BE84" rx="3" ry="3" style="stroke:#038048;stroke-width:1;"/><text fill="#000000" font-family="sans-serif" font-size="14" lengthAdjust="spacing" textLength="196.5674" x="67.35" y="756.7851">SecretBase(location: String)</text><ellipse cx="58.35" cy="769.7353" fill="#84BE84" rx="3" ry="3" style="stroke:#038048;stroke-width:1;"/><text fill="#000000" font-family="sans-serif" font-size="14" lengthAdjust="spacing" textLength="90.0703" x="67.35" y="773.082">SecretBase()</text><ellipse cx="58.35" cy="786.0322" fill="#84BE84" rx="3" ry="3" style="stroke:#038048;stroke-width:1;"/><text fill="#000000" font-family="sans-serif" font-size="14" lengthAdjust="spacing" textLength="217.3213" x="67.35" y="789.3789">houseTransformedBand(): void</text></g><!--class Ceremony--><g id="elem_Ceremony"><rect codeLine="109" fill="#F1F1F1" height="113.1875" id="Ceremony" rx="2.5" ry="2.5" style="stroke:#181818;stroke-width:0.5;" width="199.8652" x="273.08" y="7"/><ellipse cx="332.703" cy="23" fill="#ADD1B2" rx="11" ry="11" style="stroke:#181818;stroke-width:1;"/><path d="M335.6718,28.6406 Q335.0937,28.9375 334.453,29.0781 Q333.8124,29.2344 333.1093,29.2344 Q330.6093,29.2344 329.2812,27.5938 Q327.9687,25.9375 327.9687,22.8125 Q327.9687,19.6875 329.2812,18.0313 Q330.6093,16.375 333.1093,16.375 Q333.8124,16.375 334.453,16.5313 Q335.1093,16.6875 335.6718,16.9844 L335.6718,19.7031 Q335.0468,19.125 334.453,18.8594 Q333.8593,18.5781 333.2343,18.5781 Q331.8905,18.5781 331.203,19.6563 Q330.5155,20.7188 330.5155,22.8125 Q330.5155,24.9063 331.203,25.9844 Q331.8905,27.0469 333.2343,27.0469 Q333.8593,27.0469 334.453,26.7813 Q335.0468,26.5 335.6718,25.9219 L335.6718,28.6406 Z " fill="#000000"/><text fill="#000000" font-family="sans-serif" font-size="14" lengthAdjust="spacing" textLength="72.1191" x="353.203" y="27.8467">Ceremony</text><line style="stroke:#181818;stroke-width:0.5;" x1="274.08" x2="471.9452" y1="39" y2="39"/><line style="stroke:#181818;stroke-width:0.5;" x1="274.08" x2="471.9452" y1="47" y2="47"/><ellipse cx="284.08" cy="60.6484" fill="#84BE84" rx="3" ry="3" style="stroke:#038048;stroke-width:1;"/><text fill="#000000" font-family="sans-serif" font-size="14" lengthAdjust="spacing" textLength="173.8652" x="293.08" y="63.9951">Ceremony(event: String)</text><ellipse cx="284.08" cy="76.9453" fill="#84BE84" rx="3" ry="3" style="stroke:#038048;stroke-width:1;"/><text fill="#000000" font-family="sans-serif" font-size="14" lengthAdjust="spacing" textLength="83.043" x="293.08" y="80.292">Ceremony()</text><ellipse cx="284.08" cy="93.2422" fill="#84BE84" rx="3" ry="3" style="stroke:#038048;stroke-width:1;"/><text fill="#000000" font-family="sans-serif" font-size="14" lengthAdjust="spacing" textLength="162.2646" x="293.08" y="96.5889">awardFakeBand(): void</text><ellipse cx="284.08" cy="109.5391" fill="#84BE84" rx="3" ry="3" style="stroke:#038048;stroke-width:1;"/><text fill="#000000" font-family="sans-serif" font-size="14" lengthAdjust="spacing" textLength="171.0557" x="293.08" y="112.8857">revealConspiracy(): void</text></g><!--class Constants--><g id="elem_Constants"><rect codeLine="121" fill="#F1F1F1" height="64.2969" id="Constants" rx="2.5" ry="2.5" style="stroke:#181818;stroke-width:0.5;" width="238.707" x="1039.66" y="31.45"/><ellipse cx="1119.6473" cy="47.45" fill="#ADD1B2" rx="11" ry="11" style="stroke:#181818;stroke-width:1;"/><path d="M1122.6161,53.0906 Q1122.0379,53.3875 1121.3973,53.5281 Q1120.7567,53.6844 1120.0536,53.6844 Q1117.5536,53.6844 1116.2254,52.0438 Q1114.9129,50.3875 1114.9129,47.2625 Q1114.9129,44.1375 1116.2254,42.4813 Q1117.5536,40.825 1120.0536,40.825 Q1120.7567,40.825 1121.3973,40.9813 Q1122.0536,41.1375 1122.6161,41.4344 L1122.6161,44.1531 Q1121.9911,43.575 1121.3973,43.3094 Q1120.8036,43.0281 1120.1786,43.0281 Q1118.8348,43.0281 1118.1473,44.1063 Q1117.4598,45.1688 1117.4598,47.2625 Q1117.4598,49.3563 1118.1473,50.4344 Q1118.8348,51.4969 1120.1786,51.4969 Q1120.8036,51.4969 1121.3973,51.2313 Q1121.9911,50.95 1122.6161,50.3719 L1122.6161,53.0906 Z " fill="#000000"/><text fill="#000000" font-family="sans-serif" font-size="14" lengthAdjust="spacing" textLength="70.2324" x="1140.1473" y="52.2967">Constants</text><line style="stroke:#181818;stroke-width:0.5;" x1="1040.66" x2="1277.367" y1="63.45" y2="63.45"/><ellipse cx="1050.66" cy="77.0984" fill="#FFFFFF" fill-opacity="0.00000" rx="3" ry="3" style="stroke:#038048;stroke-width:1;"/><text fill="#000000" font-family="sans-serif" font-size="14" lengthAdjust="spacing" text-decoration="underline" textLength="212.707" x="1059.66" y="80.4451">MAX_BAND_MEMBERS: int = 4</text><line style="stroke:#181818;stroke-width:0.5;" x1="1040.66" x2="1277.367" y1="87.7469" y2="87.7469"/></g><!--link BandMember to Person--><g id="link_BandMember_Person"><path codeLine="34" d="M1176.67,590.59 C1112.5,625.9 1052.7896,658.7613 995.6796,690.1913 " fill="#FFFFFF" fill-opacity="0.00000" id="BandMember-to-Person" style="stroke:#181818;stroke-width:1;"/><polygon fill="#FFFFFF" fill-opacity="0.00000" points="979.91,698.87,998.5725,695.4479,992.7867,684.9348,979.91,698.87" style="stroke:#181818;stroke-width:1;"/></g><!--link BandMember to IMusical--><g id="link_BandMember_IMusical"><path codeLine="35" d="M1365.98,590.43 C1399.79,632.5 1429.4731,669.4304 1455.3231,701.5904 " fill="#FFFFFF" fill-opacity="0.00000" id="BandMember-to-IMusical" style="stroke:#181818;stroke-width:1;stroke-dasharray:7.0,7.0;"/><polygon fill="#FFFFFF" fill-opacity="0.00000" points="1466.6,715.62,1459.9996,697.8314,1450.6465,705.3493,1466.6,715.62" style="stroke:#181818;stroke-width:1;"/></g><!--link BandMember to ITransformable--><g id="link_BandMember_ITransformable"><path codeLine="36" d="M1250.05,590.43 C1216.23,632.5 1186.5569,669.4304 1160.7069,701.5904 " fill="#FFFFFF" fill-opacity="0.00000" id="BandMember-to-ITransformable" style="stroke:#181818;stroke-width:1;stroke-dasharray:7.0,7.0;"/><polygon fill="#FFFFFF" fill-opacity="0.00000" points="1149.43,715.62,1165.3835,705.3493,1156.0304,697.8314,1149.43,715.62" style="stroke:#181818;stroke-width:1;"/></g><!--link BandMember to IRescuable--><g id="link_BandMember_IRescuable"><path codeLine="37" d="M1308.01,590.43 C1308.01,632.5 1308.01,665.46 1308.01,697.62 " fill="#FFFFFF" fill-opacity="0.00000" id="BandMember-to-IRescuable" style="stroke:#181818;stroke-width:1;stroke-dasharray:7.0,7.0;"/><polygon fill="#FFFFFF" fill-opacity="0.00000" points="1308.01,715.62,1314.01,697.62,1302.01,697.62,1308.01,715.62" style="stroke:#181818;stroke-width:1;"/></g><!--link Astronaut to Person--><g id="link_Astronaut_Person"><path codeLine="48" d="M892.01,598.7 C892.01,629.36 892.01,645.62 892.01,673.49 " fill="#FFFFFF" fill-opacity="0.00000" id="Astronaut-to-Person" style="stroke:#181818;stroke-width:1;"/><polygon fill="#FFFFFF" fill-opacity="0.00000" points="892.01,691.49,898.01,673.49,886.01,673.49,892.01,691.49" style="stroke:#181818;stroke-width:1;"/></g><!--link Producer to Person--><g id="link_Producer_Person"><path codeLine="58" d="M367.25,590.6 C374.58,593.27 381.86,595.86 389.01,598.35 C466.06,625.11 664.241,682.3704 786.711,717.3204 " fill="#FFFFFF" fill-opacity="0.00000" id="Producer-to-Person" style="stroke:#181818;stroke-width:1;"/><polygon fill="#FFFFFF" fill-opacity="0.00000" points="804.02,722.26,788.3575,711.5508,785.0645,723.0901,804.02,722.26" style="stroke:#181818;stroke-width:1;"/></g><!--link Producer to Studio--><g id="link_Producer_Studio"><path codeLine="59" d="M277.85,590.43 C311.11,617.43 344.2117,644.3084 377.4717,671.3084 " fill="#FFFFFF" fill-opacity="0.00000" id="Producer-to-Studio" style="stroke:#181818;stroke-width:1;stroke-dasharray:7.0,7.0;"/><polygon fill="#181818" points="382.13,675.09,377.6636,666.3121,378.2481,671.9387,372.6215,672.5232,382.13,675.09" style="stroke:#181818;stroke-width:1;"/><text fill="#000000" font-family="sans-serif" font-size="13" lengthAdjust="spacing" textLength="29.7832" x="340.01" y="641.4169">uses</text></g><!--link Producer to Studio--><g id="link_Producer_Studio"><path codeLine="92" d="M260.23,590.42 C279.69,608.98 301.17,628.46 322.01,645.35 C334.31,655.31 342.6852,661.7981 356.0252,671.4281 " fill="#FFFFFF" fill-opacity="0.00000" id="Producer-to-Studio-1" style="stroke:#181818;stroke-width:1;stroke-dasharray:7.0,7.0;"/><polygon fill="#181818" points="360.89,674.94,355.934,666.429,356.836,672.0134,351.2515,672.9154,360.89,674.94" style="stroke:#181818;stroke-width:1;"/></g><!--reverse link Band to BandMember--><g id="link_Band_BandMember"><path codeLine="73" d="M833.8624,353.7094 C842.7624,357.0794 840.37,356.11 849.01,359.27 C950.66,396.42 977.62,401.24 1080.01,436.27 C1087.35,438.78 1094.83,441.35 1102.37,443.95 " fill="#FFFFFF" fill-opacity="0.00000" id="Band-backto-BandMember" style="stroke:#181818;stroke-width:1;"/><polygon fill="#181818" points="822.64,349.46,826.8347,355.3255,833.8624,353.7094,829.6677,347.8439,822.64,349.46" style="stroke:#181818;stroke-width:1;"/><text fill="#000000" font-family="sans-serif" font-size="13" lengthAdjust="spacing" textLength="55.0278" x="988.01" y="402.3369">contains</text><text fill="#000000" font-family="sans-serif" font-size="13" lengthAdjust="spacing" textLength="8.271" x="830.1818" y="349.2183">1</text><text fill="#000000" font-family="sans-serif" font-size="13" lengthAdjust="spacing" textLength="8.271" x="1080.9482" y="435.841">4</text></g><!--link Band to Producer--><g id="link_Band_Producer"><path codeLine="74" d="M492.3,359.66 C439.39,386.99 385.9612,414.5871 334.3512,441.2371 " fill="#FFFFFF" fill-opacity="0.00000" id="Band-to-Producer" style="stroke:#181818;stroke-width:1;"/><polygon fill="#181818" points="329.02,443.99,338.852,443.4148,333.4627,441.6959,335.1815,436.3065,329.02,443.99" style="stroke:#181818;stroke-width:1;"/><text fill="#000000" font-family="sans-serif" font-size="13" lengthAdjust="spacing" textLength="88.4292" x="434.01" y="402.3369">kidnapped by</text><text fill="#000000" font-family="sans-serif" font-size="13" lengthAdjust="spacing" textLength="8.271" x="470.5868" y="379.3751">1</text><text fill="#000000" font-family="sans-serif" font-size="13" lengthAdjust="spacing" textLength="8.271" x="333.9962" y="433.36">1</text></g><!--link Band to Astronaut--><g id="link_Band_Astronaut"><path codeLine="75" d="M651.04,359.46 C654.68,376.14 660.85,392.74 671.01,406.27 C679.41,417.45 692.6267,427.1812 715.4967,439.8012 " fill="#FFFFFF" fill-opacity="0.00000" id="Band-to-Astronaut" style="stroke:#181818;stroke-width:1;"/><polygon fill="#181818" points="720.75,442.7,714.8027,434.8496,716.3723,440.2843,710.9376,441.8539,720.75,442.7" style="stroke:#181818;stroke-width:1;"/><text fill="#000000" font-family="sans-serif" font-size="13" lengthAdjust="spacing" textLength="71.8301" x="672.01" y="402.3369">rescued by</text><text fill="#000000" font-family="sans-serif" font-size="13" lengthAdjust="spacing" textLength="8.271" x="642.9659" y="379.4354">1</text><text fill="#000000" font-family="sans-serif" font-size="13" lengthAdjust="spacing" textLength="8.271" x="704.8144" y="436.0493">1</text></g><!--link TransformationStudio to Studio--><g id="link_TransformationStudio_Studio"><path codeLine="91" d="M530.38,566.02 C520.03,597.6 511.8698,622.4932 500.2098,658.1132 " fill="#FFFFFF" fill-opacity="0.00000" id="TransformationStudio-to-Studio" style="stroke:#181818;stroke-width:1;"/><polygon fill="#FFFFFF" fill-opacity="0.00000" points="494.61,675.22,505.9121,659.9798,494.5075,656.2466,494.61,675.22" style="stroke:#181818;stroke-width:1;"/></g><!--link RescueOperation to Band--><g id="link_RescueOperation_Band"><path codeLine="99" d="M784.51,112.32 C763.94,137.17 742.0459,163.618 718.4959,192.068 " fill="#FFFFFF" fill-opacity="0.00000" id="RescueOperation-to-Band" style="stroke:#181818;stroke-width:1;stroke-dasharray:7.0,7.0;"/><polygon fill="#181818" points="714.67,196.69,723.4902,192.3077,717.8583,192.8384,717.3276,187.2065,714.67,196.69" style="stroke:#181818;stroke-width:1;"/><text fill="#000000" font-family="sans-serif" font-size="13" lengthAdjust="spacing" textLength="50.2734" x="753.01" y="163.2569">rescues</text></g><!--link RescueOperation to Astronaut--><g id="link_RescueOperation_Astronaut"><path codeLine="100" d="M831.22,112.51 C842.83,189.6 864.8769,336.0668 879.0169,430.0068 " fill="#FFFFFF" fill-opacity="0.00000" id="RescueOperation-to-Astronaut" style="stroke:#181818;stroke-width:1;stroke-dasharray:7.0,7.0;"/><polygon fill="#181818" points="879.91,435.94,882.5258,426.4449,879.1658,430.9957,874.615,427.6356,879.91,435.94" style="stroke:#181818;stroke-width:1;"/><text fill="#000000" font-family="sans-serif" font-size="13" lengthAdjust="spacing" textLength="39.9395" x="870.01" y="282.7969">led by</text></g><!--link Producer to SecretBase--><g id="link_Producer_SecretBase"><path codeLine="107" d="M182.71,590.43 C179.61,625.95 176.4713,661.8227 173.7213,693.3527 " fill="#FFFFFF" fill-opacity="0.00000" id="Producer-to-SecretBase" style="stroke:#181818;stroke-width:1;stroke-dasharray:7.0,7.0;"/><polygon fill="#181818" points="173.2,699.33,177.9669,690.7116,173.6344,694.3489,169.9971,690.0165,173.2,699.33" style="stroke:#181818;stroke-width:1;"/></g><!--link Ceremony to Producer--><g id="link_Ceremony_Producer"><path codeLine="115" d="M350.27,120.44 C317,202.11 257.3135,348.6333 220.6435,438.6533 " fill="#FFFFFF" fill-opacity="0.00000" id="Ceremony-to-Producer" style="stroke:#181818;stroke-width:1;stroke-dasharray:7.0,7.0;"/><polygon fill="#181818" points="218.38,444.21,225.4797,437.384,220.2663,439.5795,218.0709,434.366,218.38,444.21" style="stroke:#181818;stroke-width:1;"/></g><!--link Ceremony to Band--><g id="link_Ceremony_Band"><path codeLine="116" d="M445.26,120.47 C475.42,143.78 506.284,167.6391 539.174,193.0791 " fill="#FFFFFF" fill-opacity="0.00000" id="Ceremony-to-Band" style="stroke:#181818;stroke-width:1;stroke-dasharray:7.0,7.0;"/><polygon fill="#181818" points="543.92,196.75,539.2483,188.0796,539.965,193.6909,534.3538,194.4076,543.92,196.75" style="stroke:#181818;stroke-width:1;"/></g><!--SRC=[hLPDRnen4BtpAomkWLAGAkMqQf38Hwj89OsI77gBlDu9iJ3solRIefJ_tjbTs_l1ReHAE02U6O_dFR-PtJDoyT-VmHcvbHRq2sLWS7529kxpaDjbPZYZWhmD27uc91LqLzX6uuXi5Ky6-q4z_abJQLwKtj1OGDXblRLdrmCObZLsn53O8AdlE3kDdYj13HYIQYuPJwaubIOQ6mJ6B66Os91xq4P9Xs1A9Dr0H1ujdhPoeCg8KTqpRhhySWNs3gDoy2u3mY-FkQGoMS8c1XsEqagqZwgY6iTzRiIEtmyU4uAaAOaeCsQL9aR56XZLAvgeNZtqtNZ_lTOGJQT_vuwBkdasGxFNug6Z8Rf3Tr2Nft21Y9IacGro2vREowcyumeUM-S7jU3f0fpZSbFyH3Lwcy5Sld21cIpSK6rVMwaIRfZQWdxIsO6FMWkRr9PKrfYiWDM9TAZljKeo5cGp2OPkGNgdDwnv8cbQO8xnguJLS-b74W1_Kg6uxU0npRJ9uBjGCHNNQiCbbQmED62fump6sMoEQBA4AnAH37l-vD7n088ohYIEZnsXHZ7kbgSbhZewz7B9cOd83sxirugvUVzOAVZhkiEIMA-P93doMZHiK7X71kS306S4qcvRBKs6NuRaqtHAXkV3-jIA25FIKYvD5JQTpelVS8MHqriA2ObtXu6LqYFNT4LSUoOx5NXoJR6yEwImZEiaqRdyCjKAdw_ctJu0ZGyQHAiq1zCRnLwfNC428L9ToFimC0pzQi9Pb5q3rQJJsGcbC_0uOFj1Pmb5-vN_kzhFbryEgfyf4fDl3fLpoIt7-US6MHzJ-DIXwoMN2GeDhrqSCrYKWURat0_QLUHr5iBo4ZAT8NMf2ISpfovW6d1ycUgzfJADX695aWD1LI7UzAgol5n7C2IDYRXlCHks-pAk8EzOkGj5UCC8jY1j-_pW3PFXDzN9Dxg6pWVQ5gZ8Nm9IZdsrgrKLZishyYKshNd2Ztbj8mcKho8Ktne_PEhwRCRHzeOhozaUGIyNlvul5tVNpykRvUNDmsE4GhNaWfmFzly0]--></g></svg>